<svg xmlns="http://www.w3.org/2000/svg" viewBox="0 0 32.173 76.427" height="288.858" width="121.599" xmlns:v="https://vecta.io/nano"><style><![CDATA[.B{fill:#e9b097}.C{fill:#2389bd}.D{fill:#0f79aa}.E{fill:#d3edf2}.F{fill:#a4c5d4}.G{fill:#175872}.H{fill:#fcccb1}]]></style><defs><clipPath id="A"><path d="M0 0h419.528v595.276H0z"/></clipPath><clipPath id="B"><path d="M0 0h419.528v595.276H0z"/></clipPath><clipPath id="C"><path d="M0 0h419.528v595.276H0z"/></clipPath><clipPath id="D"><path d="M0 0h419.528v595.276H0z"/></clipPath><clipPath id="E"><path d="M0 0h419.528v595.276H0z"/></clipPath><clipPath id="F"><path d="M0 0h419.528v595.276H0z"/></clipPath><clipPath id="G"><path d="M0 0h419.528v595.276H0z"/></clipPath></defs><path d="M17.047 22.2l5.446-6.752-.996-1.053-2.28.04-4.137 1.584-.546 2.492z" class="C"/><g transform="matrix(.352778 0 0 -.352778 -8.472026 94.38693)" clip-path="url(#A)"><path d="M81.26 231.408l6.45-3.926s-15.532-8.646-16.446-11.07L68.8 218.9l-1.52-2.556s-2.363 2.362-2.116 2.887 2.178 6.883 3.484 8.357 12.61 3.82 12.61 3.82" fill="#12749b"/></g><path d="M10.97 22.316l.153 8.744-5.807 2.455-4.155-1.164-.89-.877-.1-5.7z" fill="#729eb1"/><path d="M10.41 30.1l-.12-6.812-9.644 2.99.1 5.145z" class="F"/><path d="M10.41 30.1L.647 26.266l9.644-2.99z" class="E"/><path d="M11.124 31.06l-.715-.97L.03 31.186 0 32.03l6.878-.12z" fill="#034150"/><g transform="matrix(.352778 0 0 -.352778 -8.472026 94.38693)" clip-path="url(#B)"><path d="M63.722 169.34S46.86 175 44.396 173.875c0 0-8.9-2.33-11.38-2.57 0 0-7.857 4.353-8.208 5.464 0 0 39.926 2.927 41.02 4.532s-2.105-11.962-2.105-11.962" class="B"/><path d="M99.34 93.862l2.324-3.055s-.137-2.293-1.266-3.546-3.956-1.537-3.148-7.22c0 0-1.246-9.77-7.2-13.574 0 0-3.5-2.293-5.244 6.28s.712 20.067.712 20.067zM72.873 66.696s-3.446-5.412-7.288-8.44-4.87-4.984-2.9-6.36 4.443-.98 7.27-.754 7.784.4 10.718 4.724c0 0 2.432 2.662 4.908 2.738 0 0 2.075 2.882 1.32 5.515s-7.427 5.18-7.427 5.18z"/><g fill="#044759"><path d="M99.737 94.648L83.88 105.6c-2.518-7.914-1.304-16.65-1.304-16.65l3.958-3.595s6.736-.5 13.204 9.303m-38.188 71.07l23.524 3.228-13.64-7.974 3.572-1.952-.423-12.507-.28-4.58c-1.337-6.218-4.234-20.074-3.936-22.17-.04-.697.2-1.5 1.088-2.264 2.3-1.982 5.794-7.438 5.794-7.438l-1.845-10.627-1.353 1.154.102-5.856L55.1 111.84c-3.778 3.457-5.05 5.284-5.05 5.284-.325 8.54 11.5 48.594 11.5 48.594"/></g><path d="M74.154 94.73l-.224 12.857-.876 39.996-5.852 15.734-5.652 2.4 13 .103-.332 1.635 18.668.186s1.672-14.65 1.348-16.3-1.655-6.68-1.655-6.68l-3.467 2.403-1.956-3.294c1.086-11.262 2.158-23.966 1.847-27.515-.6-6.757-1.586-30.807-1.586-30.807l1.526-6.316c.375-1.227-2.236-3.74-2.236-3.74l.015-.88-.94-2.66 1.122-7.735-14.03 2.576 2.15 2.525-.085 4.91.847 3.505-.964 3.188z" class="G"/></g><path d="M27.257 33.133l1.564.14-1.132-2.276z" fill="#869eaa"/><g transform="matrix(.352778 0 0 -.352778 -8.472026 94.38693)" clip-path="url(#C)"><path d="M98.585 191.13s-5.757-20.066-4.29-28.027c0 0-28.698 1.07-34.176 3 0 0 2.796 7.163 2.74 10.365s-3.35 24.593-3.35 24.593-.425 1.536.833 5.523 5.463 14.12 5.463 14.12l7.088-10.466 7.174 7.302 3.514 11.7 12.98-5.366c1.712-.54 2.026-32.744 2.026-32.744" class="C"/><path d="M98.585 191.13h0m0 .002v-.002.002m0 .003zm0 .034v-.005.005m0 .036v-.01.01m-.001.05l.001-.047c-.001.013-.001.03-.001.047m-.213 11.034h0l.213-11.007-.213 11.008" fill="#8fadcd"/><path d="M89.1 204.162l9.28-1.874.214-11.08v-.077s-4.688-16.34-4.526-25.38c.017-.98.092-1.872.235-2.65 0 0-28.698 1.07-34.176 3 27.168 13.002 28.973 38.06 28.973 38.06" fill="#1a81b3"/><path d="M112.525 183.553s-6.565 41.42-16.637 40.31c-4.25.048-8.864-9.454-7.688-15.954s3.875-8.948 4.97-10.853 4.988-9.85 5.524-12.18 13.832-1.322 13.832-1.322" class="D"/></g><path d="M31.914 47.793l-9.374-5.56-2.88 4.898 9.614 3.255z" class="E"/><path d="M21.865 44.446l.818-1.433 8.145 5.035-.802.943z"/><path d="M21.165 45.67l.32-.56 8.264 4.204-.192.225zm-.227.397l8.445 3.677-.177.208-8.674-3.174z" class="D"/><path d="M31.255 54.945l-1.983-4.56-9.614-3.255 2.49 4.917z" class="F"/><path d="M28.336 57.668l2.92-2.723-9.107-2.898-2.376 1.614z" class="E"/><path d="M21.527 59.368l-1.754-5.707 8.563 4.008 3.837 4.967z" class="F"/><g transform="matrix(.352778 0 0 -.352778 -8.472026 94.38693)" clip-path="url(#D)"><path d="M97.273 129.355c.365 1.902 2.878 10.066 2.19 11.41l-2.52 1.708 2.44 2.85a163.13 163.13 0 0 0 2.814 6.157c1.276 2.987.65 23.15.65 23.15l5.43 8.85s2.696-2.307 4.417-9.646c-2.748-7.747-3.854-24.618-4.144-29.972-.007-.155-.053-1.28.103-2.3a10.31 10.31 0 0 0 .17-.76c.016-.05.023-.095.026-.14.19-1.083.273-2.543-.29-3.7-1.025-2.107-6.622-8.55-7.946-8.77-.885-.147-1.83-.12-2.36-.085-.386.042-1.1.223-1.02.99.012.078.025.158.042.247" class="H"/><path d="M102.848 174.63l3.456 5.632 2.644.372s-2.59-17.412-6.538-28.427c.99 4.634.438 22.423.438 22.423" class="B"/><path d="M113.826 185.14s-7.795 5.367-15.132-.264l2.586-11.24s9.44 6.802 11.415.2c0 0 1.856.173 1.13 11.306" fill="#a4c4d7"/></g><path d="M23.552 14.59l-2.495-1.316-4.388 4.766-.33 3.127z" class="C"/><g transform="matrix(.352778 0 0 -.352778 -8.472026 94.38693)" clip-path="url(#E)" class="C"><path d="M84.95 226.72l-1.25 3.203S71.175 217.427 70.186 215.5s5.28-7.035 5.28-7.035z"/></g><g class="C"><path d="M14.295 21.805l1.78-3.312-.02-1.072-.356.636-1.175-.245.22-1.286-.808 1.99z"/><path d="M14.265 17.704l.494-1.348.765 1.326z"/><path d="M17.207 19.712L15.8 17.164l-.21-.246-.327 1.148 2.04 1.644"/></g><path d="M20.952 48.43l-.276-.57 8.42 2.903.167.394zm8.712 3.68l.193.457-8.118-2.507-.155-.32zm-7.538-1.25l-.174-.36 8.003 2.298.234.554zm7.266.605l.158.374-8.157-2.496-.207-.428zm.948 2.242l.255.603-8.04-2.563-.238-.492zm-9.253-.494l.295-.193 7.728 3.32-.32.296zm8.658 2.537l-.345.32-7.85-3.16.225-.147zm-8.947-2.348l7.737 3.47-.297.276-7.817-3.498zm1.196-.784l.23-.15 8.166 2.685-.362.336z" class="D"/><path d="M30.495 61.206l-2.4-3.248-.98-.444 1.275 2.983z" class="E"/><path d="M27.16 60.083l-.498-1.947.85.303.88 2.058z" class="G"/><path d="M26.663 58.136l-.12-.612-.717-.334L26 59.69l1.162.392z" class="D"/><path d="M24.826 58.42l1.1.355.064.917-1.16-.4zm-.296-.15l-2.968-1.005.16.4 2.814.894zm.54-1.377l-4.45-1.954.238.586 4.217 1.68zm.008.527l-4.035-1.438.187.46 3.853 1.282z"/><g transform="matrix(.352778 0 0 -.352778 -8.472026 94.38693)" clip-path="url(#F)" class="D"><path d="M69.7 218.153l-2.713-13.65c-.48-2.7 2.85-24.59 2.518-25.9s-2.328-13.708-2.328-13.708l-1.813.217 2.57 13.847s-3.475 23.806-3 25.87 2.906 15.02 2.906 15.02z"/></g><path d="M16.546 16.735l-.27.91-.613-.63-.337.537-.567-1.197z" fill="#12749b"/><path d="M14.518 38.987l1.5-.1-.937-2.674-1.847-.28z" fill="#044759"/><path d="M9.148 26.118l.052 3.006-1.916.26-.05-2.878" fill="#cb9087"/><path d="M7.253 27.552l-1.73.246.032 1.82 1.73-.235z" fill="#08323a"/><path d="M5.51 27.23l.042 2.39-1.6.217-.04-2.282z" fill="#806873"/><path d="M2.794 29.992l-.028-1.612 1.16-.207.03 1.662z" class="G"/><path d="M2.75 27.393l-1.162.258.044 2.5 1.164-.158z" fill="#806873"/><path d="M3.924 26.057l5.31-1.486.03-.338-5.322 1.554z"/><path d="M9.11 29.234l-1.872-1.51-1.682.945-4-.88.062-.277 3.894.856 1.756-.987L9.3 29.014z" fill="#d87e8a"/><path d="M1.61 30L9.056 29l-.064-3.653.285-.005.068 3.905L1.65 30.29z"/><g transform="matrix(.352778 0 0 -.352778 -8.472026 94.38693)" clip-path="url(#G)"><g class="B"><path d="M78.39 232.4l-1.484.285s-2.176-2.808-4.154-3.21 2.8-1.947 2.8-1.947z"/><path d="M76.696 232.426s-2.678-3.21-6.26-3.37c0 0-1.973-.298-4.112 2.092l2.705-5.057 9.213 5.265"/><path d="M65.544 231.168s3.28-5.507 2.913-11.4c0 0 9.143 9.252 13.203 11.26 0 0-.37 3.887-.31 5.843s-15.807-5.704-15.807-5.704"/></g><path d="M61.95 246.582c-.014.028-.03.05-.042.08-.882 2.29 1.135 7.477 1.14 7.486l.65 2.526 5.45 4.005 10.514-2.05 2.752-9.468 1.844.192 1.016-6.704-.862-2.135-2.96-.052-.07-5.344s-8.03-8.984-13.977-5.953c0 0-5.613 4.57-5.618 13.074a56.19 56.19 0 0 0 .163 4.343" class="H"/><path d="M75.13 230.082c9.806 10.368 2.188 17.983 2.188 17.983l.893 7.93 2.204.038 1.998-6.874 1.843.192 1.017-6.704-.862-2.135-2.96-.05-.07-5.345s-2.766-3.094-6.254-5.038z" class="B"/><g fill="#00131b"><path d="M74.825 246.212c-.007.222-.243.395-.53.388s-.514-.194-.5-.416l.065-2.313c.005-.22.243-.396.53-.388s.515.195.508.416m-8.576 2.164c-.006.222-.243.395-.528.388s-.515-.194-.5-.416l.064-2.313c.005-.22.243-.396.53-.388s.514.195.508.416"/></g><path d="M69.02 243.457l.005.001a.93.93 0 0 0 .877.672c.516.01.943-.4.952-.915l.055-3.133a1.4 1.4 0 1 0-2.806-.049 1.4 1.4 0 0 0 .021.253z" fill="#d79e89"/><path d="M75.45 237.235s-5.016-1.335-9.457-1.375c0 0 3.566-5.687 9.457 1.375" fill="#fff"/><path d="M75.45 237.235l.104-.39c-.006-.002-1.23-.327-3-.664s-4.112-.683-6.344-.722l-.203-.003-.004.403.252.156.09.058.001-.001-.092-.057.09.058a4.91 4.91 0 0 1 .946-1.028c.303-.248.67-.49 1.098-.668s.91-.29 1.458-.28c.672.012 1.445.206 2.332.725s1.88 1.364 2.97 2.668l.31-.257.104-.39-.104.39.312-.257c-1.133-1.358-2.194-2.27-3.182-2.848s-1.906-.822-2.728-.836a4.43 4.43 0 0 0-1.808.351c-.782.33-1.374.827-1.773 1.24s-.61.745-.62.762a.4.4 0 0 0-.011.406c.07.128.205.208.35.21l.196.003c2.16.037 4.456.376 6.207.708l2.136.45.605.146.16.04.053.014c.17.045.35-.024.445-.172a.4.4 0 0 0-.029-.474z" fill="#be7767"/><path d="M61.78 250.734v.01.001c.203 1.647.728 3.688 1.917 5.93 0 0 .707 2.34.69 3.364 0 0 1.037 4.953 3.893 7.516 0 0 4.37-3.834 7.187-4.436s9.036-3.1 10.435-8.197.9-8.644.8-8.924-4.126-4.82-4.126-4.82 1.368 7.394-3.154 9.217l-1.22 5.603c0 0-4.166 1.767-8 1.955-1.614.034-7.76-.548-8.304-11.29-.047.134-.083.325-.11.554-.104.666-.217 1.9-.02 3.518" fill="#232529"/><path d="M82.016 239.113s-1.098-7.24-.355-8.083l-1.622 5.96-.072 4.142 2.618.046.04-2.325z" class="B"/><path d="M76.953 247.77l.077.062-.077-.062.077.062-.077-.062a5.67 5.67 0 0 1-.748.724 3.65 3.65 0 0 1-.708.459c-.247.118-.488.182-.697.178-.16-.004-.304-.04-.457-.132s-.317-.245-.484-.505c-.14-.22-.432-.283-.652-.144a.47.47 0 0 0-.144.648c.228.356.494.625.79.804s.62.263.93.267c.413.007.796-.113 1.137-.277.51-.248.94-.6 1.252-.893s.502-.524.51-.536c.165-.2.135-.496-.067-.66s-.5-.134-.664.067" fill="#222529"/><path d="M80.857 243.744l1.158-4.63s-.342-3.77-1.283-4.673-3.296 1.03-3.296 1.03l.95 6.76z" class="H"/><g class="B"><path d="M82.585 241.176s2.213 7.254 4.126 4.82-1.592-7.938-4.085-7.145c-.253.08-.45.168-.6.26l-.117-.826-1.382-.024-.05 2.877z"/><path d="M82.016 239.113s-1.14-5.417-4.517-7.483-.835-2.303-.835-2.303l3.454 3.148 1.348 1.782z"/></g><path d="M67.28 248.043c-.025-.023-.194-.172-.5-.32a3.1 3.1 0 0 0-1.311-.307c-.51-.01-1.11.098-1.77.402a.47.47 0 0 0-.231.623c.1.236.39.338.627.23.542-.25.992-.32 1.358-.315a2.15 2.15 0 0 1 .912.211c.102.05.178.098.226.132l.05.037.008.006.115-.133-.12.13.004.003.115-.133-.12.13c.193.175.5.16.666-.03a.47.47 0 0 0-.03-.664" fill="#222529"/><g class="B"><path d="M80.364 246.985l-1.016-2.205s2.055-4.434-.804-10.06 1-2.767 1-2.767l1.587 2.75.884 4.41.536 4.028"/><path d="M65.875 230.754s5.442-5.864 12.67 3.965c5.332 7.25 1-2.766 1-2.766l-9.81-7.385"/></g></g></svg>